<?xml version="1.0" standalone="no"?>
<svg xmlns:xlink="http://www.w3.org/1999/xlink" id="wave" style="transform:rotate(180deg); transition: 0.3s" viewBox="0 0 1440 280" version="1.1" xmlns="http://www.w3.org/2000/svg"><defs><linearGradient id="sw-gradient-0" x1="0" x2="0" y1="1" y2="0"><stop stop-color="rgba(26, 26, 26, 1)" offset="0%"/><stop stop-color="rgba(26, 26, 26, 1)" offset="100%"/></linearGradient></defs><path style="transform:translate(0, 0px); opacity:1" fill="url(#sw-gradient-0)" d="M0,196L34.3,163.3C68.6,131,137,65,206,60.7C274.3,56,343,112,411,130.7C480,149,549,131,617,112C685.7,93,754,75,823,74.7C891.4,75,960,93,1029,112C1097.1,131,1166,149,1234,149.3C1302.9,149,1371,131,1440,121.3C1508.6,112,1577,112,1646,116.7C1714.3,121,1783,131,1851,140C1920,149,1989,159,2057,177.3C2125.7,196,2194,224,2263,196C2331.4,168,2400,84,2469,70C2537.1,56,2606,112,2674,116.7C2742.9,121,2811,75,2880,88.7C2948.6,103,3017,177,3086,191.3C3154.3,205,3223,159,3291,126C3360,93,3429,75,3497,60.7C3565.7,47,3634,37,3703,56C3771.4,75,3840,121,3909,121.3C3977.1,121,4046,75,4114,79.3C4182.9,84,4251,140,4320,177.3C4388.6,215,4457,233,4526,214.7C4594.3,196,4663,140,4731,130.7C4800,121,4869,159,4903,177.3L4937.1,196L4937.1,280L4902.9,280C4868.6,280,4800,280,4731,280C4662.9,280,4594,280,4526,280C4457.1,280,4389,280,4320,280C4251.4,280,4183,280,4114,280C4045.7,280,3977,280,3909,280C3840,280,3771,280,3703,280C3634.3,280,3566,280,3497,280C3428.6,280,3360,280,3291,280C3222.9,280,3154,280,3086,280C3017.1,280,2949,280,2880,280C2811.4,280,2743,280,2674,280C2605.7,280,2537,280,2469,280C2400,280,2331,280,2263,280C2194.3,280,2126,280,2057,280C1988.6,280,1920,280,1851,280C1782.9,280,1714,280,1646,280C1577.1,280,1509,280,1440,280C1371.4,280,1303,280,1234,280C1165.7,280,1097,280,1029,280C960,280,891,280,823,280C754.3,280,686,280,617,280C548.6,280,480,280,411,280C342.9,280,274,280,206,280C137.1,280,69,280,34,280L0,280Z"/></svg>